<svg width="1024" height="143" viewBox="0 0 1024 143" fill="none" xmlns="http://www.w3.org/2000/svg">
<g clip-path="url(#clip0_1832_2)">
<mask id="mask0_1832_2" style="mask-type:luminance" maskUnits="userSpaceOnUse" x="0" y="0" width="1024" height="143">
<path d="M1024 0H0V142.058H1024V0Z" fill="white"/>
</mask>
<g mask="url(#mask0_1832_2)">
<path fill-rule="evenodd" clip-rule="evenodd" d="M-0.00184379 86.0535C-0.00184379 104.078 2.08174 115.024 15.6911 127.685C28.2273 139.324 38.5168 141.376 56.1474 141.376C77.6362 141.376 108.588 111.951 125.746 96.2059C128.26 93.8975 132.528 90.2134 134.994 88.5123L144.551 93.4292C144.821 80.7938 147.28 58.5377 147.28 58.5377C147.259 58.5341 118.745 69.2475 117.071 70.0732L124.239 77.4489C120.402 83.3449 92.9507 106.937 85.2932 112.366C81.9666 114.724 80.1607 116.311 76.8443 118.423C62.7243 127.431 49.5424 131.952 33.4119 124.197C-13.9202 101.441 30.0921 13.5186 94.6625 79.607C98.3157 83.3449 102.702 86.3394 106.501 90.2241C110.609 86.5898 117.613 81.3259 117.613 81.3259C117.613 81.3259 110.307 74.4042 104.82 69.1545C102.101 66.5566 100.521 65.6635 97.6457 63.0153C45.7294 15.1731 -0.00878906 59.7207 -0.00878906 86.057L-0.00184379 86.0535Z" fill="#25C9D1"/>
<path fill-rule="evenodd" clip-rule="evenodd" d="M401.406 57.7805V47.9462H388.266V138.921H401.406V78.6822C401.406 64.152 432.511 47.4209 447.7 66.6966C457.243 78.8071 453.975 119.023 453.975 138.921H467.115V81.1404C467.115 72.7998 468.477 68.9725 474.224 65.0955C492.556 51.023 518.486 57.8127 518.486 84.8286V138.921H531.627V81.1404C531.627 40.281 482.211 37.0112 459.948 61.4719C457.274 51.1731 442.453 45.4912 428.889 45.4912C415.029 45.4912 409.525 52.188 401.406 57.7805Z" fill="#0073C8"/>
<path fill-rule="evenodd" clip-rule="evenodd" d="M831.488 95.893C831.488 83.7181 832.713 76.4246 841.894 67.2619C863.729 45.4885 894.804 66.551 894.804 76.221C894.804 110.083 898.924 113.389 884.594 123.491C864.836 137.417 831.488 124.885 831.488 95.893ZM894.804 57.7814C847.091 24.9051 801.549 71.6964 821.887 114.379C824.024 118.867 827.664 124.86 831.174 128.183C841.231 137.707 850.619 141.38 864.943 141.38C881.268 141.38 884.647 135.852 894.81 130.317V138.922H907.951V0.00488281H894.81V57.785L894.804 57.7814Z" fill="#0073C8"/>
<path fill-rule="evenodd" clip-rule="evenodd" d="M714.408 95.8922C714.408 84.3423 715 79.6899 722.553 69.8483C726.619 64.549 733.468 60.743 740.748 59.0527C748.348 57.2874 757.221 58.3845 763.442 61.4255C782.549 70.7634 777.73 80.9939 777.73 111.876C777.73 115.164 770.314 121.818 767.692 123.676C749.313 136.723 714.408 126.728 714.408 95.8922ZM743.086 141.379C752.438 141.379 757.067 141.705 765.804 137.713C771.066 135.308 772.966 132.914 777.73 130.316V138.921H790.871V47.9462H777.73V57.7806C722.653 19.8227 677.207 85.4326 712.905 126.943C718.806 133.796 730.905 141.379 743.086 141.379Z" fill="#0073C8"/>
<path fill-rule="evenodd" clip-rule="evenodd" d="M979.637 57.7823C996.654 57.7823 1009.5 71.1687 1009.5 88.5181H948.574C948.935 71.9051 963.099 57.7823 979.637 57.7823ZM976.05 141.377C988.628 141.377 995.784 141.231 1007.1 133.984C1013.18 130.085 1018.38 123.867 1020.25 115.562H1005.92C1000.15 137.822 949.331 134.588 948.574 99.5815H1020.25C1031.04 99.5815 1018.12 46.7188 986.805 46.7188C971.628 46.7188 957.369 46.6795 945.993 61.2703C942.649 65.5545 939.961 69.7677 937.813 74.9854C936.451 78.2977 934.155 89.9618 934.403 94.4822C935.214 109.262 939.95 120.001 948.082 128.367C948.254 128.545 948.509 128.799 948.686 128.974C949.414 129.696 950.912 131.05 951.853 131.861C958.322 137.439 966.538 141.377 976.05 141.377Z" fill="#0073C8"/>
<path fill-rule="evenodd" clip-rule="evenodd" d="M320.173 57.7821C337.192 57.7821 350.037 71.1686 350.037 88.518H289.109C289.471 71.9043 303.639 57.7821 320.173 57.7821ZM316.589 141.377C329.163 141.377 336.32 141.231 347.634 133.984C353.718 130.085 358.913 123.867 360.792 115.562H346.457C340.682 137.822 289.87 134.587 289.113 99.5813H360.792C366.876 99.5813 364.091 89.5467 362.692 81.6424C360.486 69.1425 354.024 60.3195 344.773 53.3652C328.365 41.0294 291.627 42.6804 278.348 74.9852C276.986 78.2975 274.687 89.9616 274.938 94.482C276.219 117.925 292.107 141.377 316.589 141.377Z" fill="#0073C8"/>
<path fill-rule="evenodd" clip-rule="evenodd" d="M151.601 54.5699C151.368 53.7909 150.823 74.0775 149.913 73.8916C150.274 73.0878 155.782 69.45 158.552 67.2558C193.744 39.4075 225.8 66.6449 225.8 88.5112V95.8869C225.8 111.067 208.406 127.848 193.543 127.848C176.739 127.848 171.808 126.687 155.816 113.808L133.81 93.4246C130.646 95.6046 122.642 104.049 121.864 104.489C123.097 105.592 144.95 123.617 149.149 126.816C203.954 168.519 257.718 112.947 235.145 70.2863C225.967 52.9404 209.052 41.791 187.57 41.791C171.693 41.791 161.82 49.0059 151.601 54.5699Z" fill="#25C9D1"/>
<path fill-rule="evenodd" clip-rule="evenodd" d="M568.668 47.9463C541.04 47.9463 544.772 44.8909 544.772 60.2389H568.668C568.668 78.5608 566.126 115.025 572.606 127.489C575.856 133.739 577.315 135.186 583.354 138.556C594.778 144.935 617.643 141.336 617.643 137.688C617.643 131.509 616.572 132.185 616.454 126.624C608.623 130.491 581.805 133.986 581.805 109.414V60.2389H615.258V47.9463H581.805V14.752H568.665L568.668 47.9463Z" fill="#0073C8"/>
<path fill-rule="evenodd" clip-rule="evenodd" d="M653.49 62.6997V47.948H640.35V138.923H653.49V83.6012C653.49 78.7019 656.023 76.6255 658.219 73.7133C664.334 65.5906 676.805 59.2726 688.134 59.0117V46.7188C664.434 46.7188 664.286 55.2594 653.49 62.6997Z" fill="#0073C8"/>
</g>
</g>
<defs>
<clipPath id="clip0_1832_2">
<rect width="1024" height="142.058" fill="white"/>
</clipPath>
</defs>
</svg>
